<?xml version="1.0" encoding="UTF-8"?><svg id="b" xmlns="http://www.w3.org/2000/svg" viewBox="0 0 516.36 148"><g id="c"><path d="M236.3,125.06c-8.84,0-16.24-1.37-22.21-4.1-5.97-2.73-10.45-6.56-13.46-11.48-3.01-4.92-4.56-10.52-4.65-16.81h18.45c.09,3.74.93,6.97,2.53,9.7,1.59,2.73,4.03,4.88,7.31,6.42,3.28,1.55,7.52,2.32,12.71,2.32,6.19,0,11.16-1.16,14.9-3.48,3.73-2.32,5.6-5.76,5.6-10.32,0-2.64-.41-4.85-1.23-6.63-.82-1.78-2.19-3.26-4.1-4.44-1.91-1.18-4.44-2.19-7.58-3.01s-7.08-1.64-11.82-2.46c-5.65-.91-10.64-2.12-14.96-3.62-4.33-1.5-7.95-3.35-10.86-5.53-2.92-2.19-5.1-4.85-6.56-7.99-1.46-3.14-2.19-6.9-2.19-11.27,0-6.01,1.52-11.21,4.58-15.58,3.05-4.37,7.4-7.77,13.05-10.18,5.65-2.41,12.39-3.62,20.22-3.62s14.37,1.23,19.88,3.69c5.51,2.46,9.75,5.92,12.78,10.32,2.78,4.04,3.5,6.66,3.46,10.91h-18.17c-1.01-3.55-1.82-4.35-1.82-4.35-1.73-2.32-4.03-4.03-6.9-5.12-2.87-1.09-6.17-1.64-9.91-1.64s-7.13.55-9.91,1.64c-2.78,1.09-4.9,2.62-6.35,4.58-1.46,1.96-2.19,4.3-2.19,7.04,0,3.37.84,5.94,2.53,7.72,1.68,1.78,4.42,3.17,8.2,4.17,3.78,1,8.68,2.01,14.69,3.01,4.28.73,8.45,1.64,12.5,2.73,4.05,1.09,7.7,2.71,10.93,4.85,3.23,2.14,5.81,5.06,7.72,8.75,1.91,3.69,2.87,8.45,2.87,14.28s-1.5,10.98-4.51,15.44c-3.01,4.46-7.47,7.93-13.39,10.39-5.92,2.46-13.3,3.69-22.14,3.69Z" style="stroke-width:0px;"/><path d="M341.78,147.6v-14.69h8.41c2.28,0,4.18-.29,5.7-.86,1.52-.57,2.8-1.48,3.85-2.71,1.05-1.24,1.9-2.81,2.57-4.71l4.14-10.7v7.99l-30.95-74.02h19.54l14.94,43.36,2.85,8.56h1.93l2.57-8.56,14.08-43.36h18.97l-30.66,80.87c-1.71,4.85-3.83,8.65-6.35,11.41-2.52,2.76-5.42,4.68-8.7,5.78-3.28,1.09-7.01,1.64-11.2,1.64h-11.7Z" style="stroke-width:0px;"/><path d="M417.98,125.06V22.98h17.83v102.08h-17.83Z" style="stroke-width:0px;"/><path d="M499.36,79.21h-.24c.02.71.01,1.45-.02,2.21l1.71-2.28h-1.45s0,.05,0,.08Z" style="stroke-width:0px;"/><path d="M461.67,79.14h-1.7l1.57,2.28c.02-.76.07-1.49.14-2.21h-.01s0-.05,0-.08Z" style="stroke-width:0px;"/><path d="M513.67,69.01c-2.42-6.46-6.4-11.6-11.91-15.4-5.52-3.8-12.6-5.7-21.25-5.7-7.42,0-13.88,1.64-19.4,4.92-5.52,3.28-9.75,7.89-12.69,13.83-2.95,5.94-4.42,12.96-4.42,21.04s1.52,13.17,4.52,18.97c3,5.8,7.25,10.32,12.76,13.55,5.51,3.23,12.17,4.85,19.97,4.85,6.18,0,11.74-1.05,16.69-3.14,4.94-2.09,8.99-5.01,12.12-8.77,3.14-3.76,5.04-8.11,5.71-13.05h-17.85c-1.28,2.85-2.93,5.54-6.19,7.91-3.03,2.2-6.02,3.69-10.58,3.69-3.9,0-7.24-.88-10.19-2.59-2.95-1.71-5.42-4.15-7.08-7.39-1.66-3.23-2.33-6.04-2.33-10.61h54.48c.86-8.27.07-15.64-2.35-22.11ZM499.1,81.42c.03-.76.04-1.49.02-2.21h-37.43c-.07.72-.12,1.45-.14,2.21l-1.57-2.28h1.7c.04-10.37,8.46-18.77,18.84-18.77s18.8,8.4,18.84,18.77h1.45l-1.71,2.28Z" style="stroke-width:0px;"/><path d="M461.67,79.14s0,.05,0,.08h.01s0-.05,0-.08h-.02Z" style="stroke-width:0px;"/><path d="M499.35,79.14h-.24s0,.05,0,.08h.24s0-.05,0-.08Z" style="stroke-width:0px;"/><path d="M312.36,47.9h-10.4v-1.68c.92.04,2.95-.17,4.3-.62,1.54-.51,2.64-1.09,3.95-2.12,2.09-1.65,3.08-3.15,3.96-5.16,1.17-2.67.97-4.12.94-7.59l.02-7.76h-16.95v8.24c-.17,9.09-8.21,16.68-17.47,16.68v14.5h13.98v45.4c0,3.62.52,6.7,1.57,9.27,1.05,2.57,2.87,4.54,5.49,5.92,2.61,1.38,6.25,2.07,10.91,2.07h15.83v-14.55h-9.7c-2.19,0-3.8-.4-4.85-1.21-1.05-.81-1.57-2.4-1.57-4.78v-42.12h16.12v-14.5h-16.12Z" style="stroke-width:0px;"/><path d="M136.76,0H11.24C5.03,0,0,5.03,0,11.24v125.52c0,6.21,5.03,11.24,11.24,11.24h125.52c6.21,0,11.24-5.03,11.24-11.24V11.24c0-6.21-5.03-11.24-11.24-11.24ZM76.54,107.99c-8.99.33-18.42-2.96-27.65-9.97l5.68-7.47c16.22,12.3,31.86,10.43,44.04-5.26l7.42,5.75c-8.42,10.85-18.64,16.55-29.49,16.95ZM94.94,77.03l-37.77,4.2c-10.2,1.13-19.39-6.21-20.52-16.41h0c-1.13-10.2,6.21-19.39,16.41-20.52l37.77-4.2c10.2-1.13,19.39,6.21,20.52,16.41h0c1.13,10.2-6.21,19.39-16.41,20.52Z" style="stroke-width:0px;"/><path d="M90.55,46.63c-6.65.74-11.45,6.73-10.71,13.39.74,6.65,6.73,11.45,13.39,10.71s11.45-6.73,10.71-13.39c-.74-6.65-6.73-11.45-13.39-10.71Z" style="stroke-width:0px;"/></g></svg>